<svg width="48" height="48" viewBox="0 0 48 48" fill="none" xmlns="http://www.w3.org/2000/svg">
<circle cx="24" cy="24" r="24" fill="#FFAC30"/>
<path d="M17.7773 24.0742H14.1543L14.1348 22.2871H17.2988C17.8327 22.2871 18.2852 22.209 18.6562 22.0527C19.0339 21.89 19.3203 21.6589 19.5156 21.3594C19.7109 21.0534 19.8086 20.6855 19.8086 20.2559C19.8086 19.7806 19.7174 19.3932 19.5352 19.0938C19.3529 18.7943 19.0729 18.5762 18.6953 18.4395C18.3242 18.3027 17.849 18.2344 17.2695 18.2344H14.8965V30.5H12.4453V16.2812H17.2695C18.0508 16.2812 18.7474 16.3561 19.3594 16.5059C19.9779 16.6556 20.502 16.89 20.9316 17.209C21.3678 17.5215 21.6966 17.9186 21.918 18.4004C22.1458 18.8822 22.2598 19.4551 22.2598 20.1191C22.2598 20.7051 22.1198 21.2422 21.8398 21.7305C21.5599 22.2122 21.1465 22.6061 20.5996 22.9121C20.0527 23.2181 19.3724 23.4004 18.5586 23.459L17.7773 24.0742ZM17.6699 30.5H13.3828L14.4863 28.5566H17.6699C18.2233 28.5566 18.6855 28.4655 19.0566 28.2832C19.4277 28.0944 19.7044 27.8372 19.8867 27.5117C20.0755 27.1797 20.1699 26.7923 20.1699 26.3496C20.1699 25.8874 20.0885 25.487 19.9258 25.1484C19.763 24.8034 19.5059 24.5397 19.1543 24.3574C18.8027 24.1686 18.3438 24.0742 17.7773 24.0742H15.0234L15.043 22.2871H18.627L19.1836 22.9609C19.9648 22.987 20.6061 23.1595 21.1074 23.4785C21.6152 23.7975 21.9928 24.2109 22.2402 24.7188C22.4876 25.2266 22.6113 25.7734 22.6113 26.3594C22.6113 27.2643 22.4128 28.0228 22.0156 28.6348C21.625 29.2467 21.0618 29.7122 20.3262 30.0312C19.5905 30.3438 18.7051 30.5 17.6699 30.5ZM36 23.2344V28.6641C35.7982 28.931 35.4824 29.224 35.0527 29.543C34.6296 29.8555 34.0664 30.1257 33.3633 30.3535C32.6602 30.5814 31.7845 30.6953 30.7363 30.6953C29.8444 30.6953 29.0273 30.5456 28.2852 30.2461C27.543 29.9401 26.9017 29.4941 26.3613 28.9082C25.8275 28.3223 25.4141 27.6094 25.1211 26.7695C24.8281 25.9232 24.6816 24.9596 24.6816 23.8789V22.8926C24.6816 21.8184 24.8151 20.8613 25.082 20.0215C25.3555 19.1751 25.7461 18.459 26.2539 17.873C26.7617 17.2871 27.3737 16.8444 28.0898 16.5449C28.8125 16.2389 29.6296 16.0859 30.541 16.0859C31.7064 16.0859 32.6699 16.2812 33.4316 16.6719C34.1999 17.056 34.7923 17.5898 35.209 18.2734C35.6257 18.957 35.8893 19.7383 36 20.6172H33.5977C33.5195 20.1224 33.3665 19.6797 33.1387 19.2891C32.9173 18.8984 32.5983 18.5924 32.1816 18.3711C31.7715 18.1432 31.2376 18.0293 30.5801 18.0293C30.0137 18.0293 29.5156 18.1367 29.0859 18.3516C28.6562 18.5664 28.2982 18.8822 28.0117 19.2988C27.7318 19.7155 27.5202 20.2233 27.377 20.8223C27.2337 21.4212 27.1621 22.1048 27.1621 22.873V23.8789C27.1621 24.6602 27.2435 25.3535 27.4062 25.959C27.5755 26.5645 27.8164 27.0755 28.1289 27.4922C28.4479 27.9089 28.8353 28.2246 29.291 28.4395C29.7467 28.6478 30.2611 28.752 30.834 28.752C31.3939 28.752 31.8529 28.7064 32.2109 28.6152C32.569 28.5176 32.8522 28.4036 33.0605 28.2734C33.2754 28.1367 33.4414 28.0065 33.5586 27.8828V25.0605H30.5996V23.2344H36Z" fill="#2C3646"/>
</svg>
