<svg width="20" height="20" viewBox="0 0 20 20" fill="none" xmlns="http://www.w3.org/2000/svg">
<g clip-path="url(#clip0_441_34)">
<rect x="4" y="4" width="12" height="12" fill="#6F56FF"/>
<path fill-rule="evenodd" clip-rule="evenodd" d="M4.16667 2.5C3.72464 2.5 3.30072 2.67559 2.98816 2.98816C2.67559 3.30072 2.5 3.72464 2.5 4.16667V15.8333C2.5 16.2754 2.67559 16.6993 2.98816 17.0118C3.30072 17.3244 3.72464 17.5 4.16667 17.5H15.8333C16.2754 17.5 16.6993 17.3244 17.0118 17.0118C17.3244 16.6993 17.5 16.2754 17.5 15.8333V4.16667C17.5 3.72464 17.3244 3.30072 17.0118 2.98816C16.6993 2.67559 16.2754 2.5 15.8333 2.5H4.16667ZM4.16667 4.16667H15.8333V15.8333H4.16667V4.16667ZM14.125 8.1625C14.2046 8.08563 14.2681 7.99367 14.3118 7.892C14.3554 7.79033 14.3784 7.68098 14.3794 7.57033C14.3803 7.45968 14.3593 7.34995 14.3174 7.24754C14.2755 7.14512 14.2136 7.05208 14.1353 6.97384C14.0571 6.89559 13.964 6.83372 13.8616 6.79181C13.7592 6.74991 13.6495 6.72883 13.5388 6.72979C13.4282 6.73075 13.3188 6.75374 13.2172 6.79742C13.1155 6.84109 13.0235 6.90457 12.9467 6.98417L8.82167 11.1092L7.05417 9.34167C6.9768 9.26424 6.88493 9.20281 6.78382 9.16089C6.68271 9.11897 6.57434 9.09737 6.46488 9.09733C6.24382 9.09725 6.03178 9.18499 5.87542 9.34125C5.71905 9.49751 5.63116 9.70948 5.63108 9.93054C5.631 10.1516 5.71874 10.3636 5.875 10.52L8.17333 12.8183C8.25846 12.9035 8.35953 12.9711 8.47077 13.0172C8.58202 13.0632 8.70125 13.087 8.82167 13.087C8.94208 13.087 9.06132 13.0632 9.17256 13.0172C9.2838 12.9711 9.38487 12.9035 9.47 12.8183L14.125 8.1625Z" fill="white"/>
<path fill-rule="evenodd" clip-rule="evenodd" d="M4.16667 2.5C3.72464 2.5 3.30072 2.67559 2.98816 2.98816C2.67559 3.30072 2.5 3.72464 2.5 4.16667V15.8333C2.5 16.2754 2.67559 16.6993 2.98816 17.0118C3.30072 17.3244 3.72464 17.5 4.16667 17.5H15.8333C16.2754 17.5 16.6993 17.3244 17.0118 17.0118C17.3244 16.6993 17.5 16.2754 17.5 15.8333V4.16667C17.5 3.72464 17.3244 3.30072 17.0118 2.98816C16.6993 2.67559 16.2754 2.5 15.8333 2.5H4.16667ZM4.16667 4.16667H15.8333V15.8333H4.16667V4.16667Z" fill="#6F56FF"/>
</g>
<defs>
<clipPath id="clip0_441_34">
<rect width="20" height="20" fill="white"/>
</clipPath>
</defs>
</svg>
