<svg width="48" height="48" viewBox="0 0 48 48" fill="none" xmlns="http://www.w3.org/2000/svg">
<circle cx="24" cy="24" r="24" fill="#EE30FF"/>
<path d="M17.0195 30.5H13.9824L14.002 28.5566H17.0195C17.8984 28.5566 18.6341 28.3646 19.2266 27.9805C19.8255 27.5964 20.2747 27.0462 20.5742 26.3301C20.8802 25.6139 21.0332 24.7611 21.0332 23.7715V23C21.0332 22.2318 20.9453 21.5514 20.7695 20.959C20.6003 20.3665 20.3464 19.8685 20.0078 19.4648C19.6758 19.0612 19.2656 18.7552 18.7773 18.5469C18.2956 18.3385 17.7389 18.2344 17.1074 18.2344H13.9238V16.2812H17.1074C18.0514 16.2812 18.9141 16.4408 19.6953 16.7598C20.4766 17.0723 21.1504 17.5247 21.7168 18.1172C22.2897 18.7096 22.7292 19.4193 23.0352 20.2461C23.3411 21.0729 23.4941 21.9974 23.4941 23.0195V23.7715C23.4941 24.7936 23.3411 25.7181 23.0352 26.5449C22.7292 27.3717 22.2897 28.0814 21.7168 28.6738C21.1439 29.2598 20.4603 29.7122 19.666 30.0312C18.8783 30.3438 17.9961 30.5 17.0195 30.5ZM15.3398 16.2812V30.5H12.8887V16.2812H15.3398ZM31.2773 18.1758L27.0293 30.5H24.4609L29.8125 16.2812H31.4531L31.2773 18.1758ZM34.832 30.5L30.5742 18.1758L30.3887 16.2812H32.0391L37.4102 30.5H34.832ZM34.627 25.2266V27.1699H26.8926V25.2266H34.627Z" fill="#2C3646"/>
</svg>
