<svg width="48" height="48" viewBox="0 0 48 48" fill="none" xmlns="http://www.w3.org/2000/svg">
<circle cx="24" cy="24" r="24" fill="#30FF6A"/>
<path d="M21.9414 22.2188V24.1621H14.3926V22.2188H21.9414ZM14.998 16.2812V30.5H12.5469V16.2812H14.998ZM23.8262 16.2812V30.5H21.3848V16.2812H23.8262ZM26.7461 16.2812H31.7754C32.8561 16.2812 33.7773 16.444 34.5391 16.7695C35.3008 17.0951 35.8835 17.5768 36.2871 18.2148C36.6973 18.8464 36.9023 19.6276 36.9023 20.5586C36.9023 21.2682 36.7721 21.8932 36.5117 22.4336C36.2513 22.974 35.8835 23.4297 35.4082 23.8008C34.9329 24.1654 34.3665 24.4486 33.709 24.6504L32.9668 25.0117H28.4453L28.4258 23.0684H31.8145C32.4004 23.0684 32.8887 22.9642 33.2793 22.7559C33.6699 22.5475 33.9629 22.2643 34.1582 21.9062C34.36 21.5417 34.4609 21.1315 34.4609 20.6758C34.4609 20.181 34.3633 19.7513 34.168 19.3867C33.9792 19.0156 33.6862 18.7324 33.2891 18.5371C32.8919 18.3353 32.3874 18.2344 31.7754 18.2344H29.1973V30.5H26.7461V16.2812ZM34.8613 30.5L31.5215 24.1133L34.0898 24.1035L37.4785 30.373V30.5H34.8613Z" fill="#2C3646"/>
</svg>
