<svg width="48" height="48" viewBox="0 0 48 48" fill="none" xmlns="http://www.w3.org/2000/svg">
<circle cx="24" cy="24" r="24" fill="#30FFFF"/>
<path d="M11.1582 16.2812H13.3457L17.457 27.248L21.5586 16.2812H23.7461L18.3164 30.5H16.5781L11.1582 16.2812ZM10.1621 16.2812H12.2422L12.6035 25.7734V30.5H10.1621V16.2812ZM22.6621 16.2812H24.752V30.5H22.3008V25.7734L22.6621 16.2812ZM31.793 30.5H28.7559L28.7754 28.5566H31.793C32.6719 28.5566 33.4076 28.3646 34 27.9805C34.599 27.5964 35.0482 27.0462 35.3477 26.3301C35.6536 25.6139 35.8066 24.7611 35.8066 23.7715V23C35.8066 22.2318 35.7188 21.5514 35.543 20.959C35.3737 20.3665 35.1198 19.8685 34.7812 19.4648C34.4492 19.0612 34.0391 18.7552 33.5508 18.5469C33.069 18.3385 32.5124 18.2344 31.8809 18.2344H28.6973V16.2812H31.8809C32.8249 16.2812 33.6875 16.4408 34.4688 16.7598C35.25 17.0723 35.9238 17.5247 36.4902 18.1172C37.0632 18.7096 37.5026 19.4193 37.8086 20.2461C38.1146 21.0729 38.2676 21.9974 38.2676 23.0195V23.7715C38.2676 24.7936 38.1146 25.7181 37.8086 26.5449C37.5026 27.3717 37.0632 28.0814 36.4902 28.6738C35.9173 29.2598 35.2337 29.7122 34.4395 30.0312C33.6517 30.3438 32.7695 30.5 31.793 30.5ZM30.1133 16.2812V30.5H27.6621V16.2812H30.1133Z" fill="#2C3646"/>
</svg>
