<svg width="12" height="13" viewBox="0 0 12 13" fill="none" xmlns="http://www.w3.org/2000/svg">
<path d="M11.0003 7.33317H6.83366V11.4998C6.83366 11.9582 6.45866 12.3332 6.00033 12.3332C5.54199 12.3332 5.16699 11.9582 5.16699 11.4998V7.33317H1.00033C0.541992 7.33317 0.166992 6.95817 0.166992 6.49984C0.166992 6.0415 0.541992 5.6665 1.00033 5.6665H5.16699V1.49984C5.16699 1.0415 5.54199 0.666504 6.00033 0.666504C6.45866 0.666504 6.83366 1.0415 6.83366 1.49984V5.6665H11.0003C11.4587 5.6665 11.8337 6.0415 11.8337 6.49984C11.8337 6.95817 11.4587 7.33317 11.0003 7.33317Z" fill="white"/>
</svg>
